<svg width="109" height="50" viewBox="0 0 109 50" fill="none" xmlns="http://www.w3.org/2000/svg">
<path d="M5.75271 21.9825L6.21917 21.9203L6.68563 21.8271L7.12086 21.6717L7.5561 21.5163L7.96035 21.3297L8.3646 21.143L8.73787 20.9254L9.07991 20.7078L9.39096 20.5212L9.79521 20.2413L9.91963 20.3035V22.0137H9.95062L10.106 21.9828L10.2927 21.9518L10.5103 21.9208L10.7279 21.8898L10.9767 21.8588L11.2256 21.8278L11.4744 21.7969L11.7233 21.7659L11.9721 21.7349L12.1897 21.7039L12.4073 21.6729L12.625 21.6419L12.8738 21.6109L13.1227 21.58L13.3715 21.549L13.6203 21.518L13.838 21.487L14.0556 21.456L14.2422 21.425L14.3976 21.3941L14.522 21.3631H14.5843V21.1142H14.553H14.4286H14.2732H14.1488H14.0244H13.9312H13.7135H13.4959H13.4649L13.2783 21.1452L13.0917 21.083H13.0607L12.9053 21.0208H12.8743L12.7499 20.9276L12.7189 20.8966L12.5945 20.7722L12.5635 20.7412L12.4703 20.5858V20.5548L12.4081 20.3994V20.3684L12.3459 20.1508L12.2837 19.871L12.2527 19.5599V19.1867V18.9378V18.658V18.4091V18.1603V17.5694V17.2584V16.17V15.7658V8.24042V7.68076V5.97056V5.41091V3.82489V3.32744V2.02149V1.64823V0.653094V0.40425V0L12.0973 0.0309822L11.9419 0.0619682L11.7552 0.0929504L11.5376 0.155162L11.32 0.217374L11.0711 0.279586L10.8223 0.310568L10.6047 0.37278L10.3871 0.434992L10.1694 0.465975L9.9206 0.528187L9.67176 0.590398L9.45414 0.621384L9.2053 0.652367L8.95645 0.714579L8.67662 0.77679L8.42778 0.807773L8.21016 0.838759L7.99254 0.869745L7.80591 0.900727L7.68149 0.931713H7.58829V1.24277L8.21016 1.30498L8.52122 1.33596H8.5522L8.83203 1.39817H8.86301L9.11186 1.49137L9.14284 1.52235L9.32948 1.64678L9.36046 1.67776L9.51587 1.83317L9.54685 1.86415L9.67128 2.08177V2.11275L9.76447 2.3616V2.39258L9.82668 2.67241L9.85767 2.98347L9.88865 3.35673V3.69877V4.07204V4.47629V4.88054V5.31577V6.18649V6.62172V8.89182L9.79545 8.95403L9.64005 8.89182L9.60906 8.82961L9.51587 8.79862L9.36046 8.73641L9.14284 8.6742L8.894 8.61199L8.61417 8.54978L8.30311 8.48757L7.96108 8.42536L7.55682 8.39437L7.12159 8.36339H6.65513L6.09547 8.39437L5.5668 8.45658L5.06935 8.54978L4.57191 8.6742L4.10544 8.82961L3.67021 9.01624L3.23497 9.26508L2.79974 9.57614L2.3645 9.9494L1.96025 10.3537L1.61821 10.7579L1.27617 11.1931L0.996345 11.6596L0.747501 12.1571L0.529883 12.6857L0.34325 13.2454L0.187843 13.805L0.0946481 14.3959L0.0324371 15.0178L0 15.6389L0.0309845 16.2608L0.0931956 16.8827L0.186391 17.4736L0.341798 18.0332L0.528431 18.5619L0.746048 19.0283L0.994893 19.4948L1.21251 19.93L1.52357 20.3033L1.8656 20.6453L2.20764 20.9564L2.58091 21.2362L2.98516 21.4538L3.4204 21.6405L3.85563 21.7959L4.32209 21.8891L4.78856 21.9513L5.286 21.9823H5.75271M6.74784 20.7076H6.499L6.25015 20.6766H6.21917L5.97032 20.6144L5.72148 20.5522L5.44165 20.459L5.19281 20.3658L4.94396 20.2413L4.63291 20.0859L4.35308 19.8993L4.10423 19.7127L3.85539 19.495L3.63777 19.2462L3.38893 18.8729L3.20229 18.5619L3.01566 18.2198L2.86026 17.8466L2.70485 17.4423L2.58043 17.0071L2.456 16.4474L2.39379 15.95L2.33158 15.3903V14.7994L2.36257 14.1464L2.42478 13.5245L2.45576 12.8714L2.58018 12.3117V12.2807L2.76682 11.7833L2.95345 11.3168L3.17107 10.8816V10.8506L3.41991 10.4774L3.69974 10.1353L4.0108 9.82426L4.35284 9.57541L4.7261 9.35779H4.75709L5.16134 9.20239H5.19232L5.62756 9.07797L6.09402 9.01576H6.18721L6.68466 8.98477L7.11989 9.01576L7.52415 9.04674L7.89741 9.10895L8.23945 9.20215L8.51928 9.32657L8.79911 9.45099L9.01673 9.57541L9.20336 9.69984L9.35877 9.82426L9.51417 9.94868L9.60737 10.0419L9.66958 10.1041L9.70056 10.1351L9.73155 10.1661L9.76253 10.2283V10.2592L9.73155 19.7124L9.57614 19.8368L9.60713 19.8991L9.48271 19.9923L9.29607 20.1167L9.07845 20.2099L8.86084 20.3031L8.61199 20.3963L8.30094 20.5207L7.98988 20.5829L7.64784 20.6451L7.24359 20.6761L6.74784 20.7076ZM22.8869 21.7339H22.7315H22.5448H22.3272H22.0784H21.8295H21.5497H21.2699H20.9901H20.679H20.3992H20.1193H19.8705H18.9066H18.6577H18.3157H18.0359H17.756H17.4762H17.2274H16.9475H16.6987H16.4811H16.2635H16.1081H15.9214V21.4229L16.8231 21.3297L17.072 21.2987L17.2896 21.2365H17.3206L17.5072 21.1743H17.5382L17.6936 21.0811L17.7246 21.0501L17.849 20.9569L17.88 20.9259L17.9732 20.8015L18.0042 20.7705L18.0664 20.5839V20.5529L18.0974 20.3353L18.1283 20.0864V19.7754V19.2779V18.8115V18.3762V17.972V17.5677V13.8985V13.4942V13.09V12.6547V12.2195V11.7221L18.0974 11.3488L18.0664 11.0377V11.0068L18.0042 10.7269L17.911 10.4781V10.4471L17.7865 10.2295L17.7556 10.1985L17.6002 10.0431L17.5692 10.0121L17.3825 9.91891H17.3516L17.1027 9.82571H17.0717L16.7919 9.7635H16.7609L16.4189 9.73251L15.797 9.6703V9.39048H15.8902L16.0456 9.35949L16.2322 9.32851L16.4499 9.29752L16.6675 9.26654L16.9163 9.23555L17.1652 9.20457L17.414 9.14236L17.6629 9.11137L17.9117 9.04916L18.1605 8.98695L18.3782 8.95597L18.5958 8.89375L18.8134 8.83154L19.031 8.76933L19.2799 8.70712L19.4975 8.64491L19.7151 8.5827L19.9327 8.52049L20.1193 8.4895L20.2747 8.45852L20.4924 8.39631V8.58294V8.76958V9.26702V9.54685V10.1999V10.542V11.2573V11.6306V12.3459V12.6879V16.6372V17.1037V18.0054V18.4096V18.7829V19.1249V19.436V19.6848L20.5233 19.9647L20.5543 20.2135V20.2445L20.6165 20.4621V20.4931L20.6788 20.6797V20.7107L20.7719 20.8661L20.8029 20.8971L20.9274 21.0215L20.9583 21.0525L21.1137 21.1457H21.1447L21.3314 21.2079L21.549 21.2701H21.58L21.8598 21.3011L22.9171 21.3943V21.7054L22.8869 21.7339ZM19.0308 4.50654L18.7819 4.44434L18.5643 4.35114L18.3467 4.22672L18.1601 4.07131L18.0046 3.88468L17.8802 3.69804L17.787 3.48043L17.7248 3.23158L17.6938 2.98274L17.7248 2.73389L17.787 2.48505L17.8802 2.26743L18.0046 2.0808L18.1913 1.86318L18.3779 1.70778L18.5955 1.58336L18.8132 1.49016L19.062 1.42795L19.3108 1.39696L19.5597 1.42795L19.8085 1.49016L20.0261 1.58336L20.2438 1.70778L20.3992 1.86318L20.5546 2.04982L20.679 2.23645L20.7722 2.45407L20.8344 2.70291L20.8654 2.95176V2.98274L20.8344 3.23158L20.7722 3.48043L20.679 3.69804L20.5546 3.88468L20.3992 4.07131L20.2125 4.22672L19.9949 4.35114L19.7773 4.44434L19.5285 4.50654L19.2796 4.53753L19.0308 4.50654ZM31.2827 29.8187L30.1009 29.7255L29.8211 29.6633L29.6035 29.6011H29.5725L29.3859 29.5389H29.3549L29.1995 29.4457L29.1685 29.4147L29.0441 29.2903L29.0131 29.2593L28.9199 29.1039V29.0729L28.8577 28.8862V28.8553L28.7955 28.6376V28.6067L28.7645 28.3578L28.7335 28.078V27.8291V27.5493V27.2073V26.834V26.4298V25.0304V24.5329V21.2057L28.8267 21.1435L28.9821 21.2367L29.0443 21.2677L29.1375 21.3299L29.2619 21.3921L29.4486 21.4853L29.6662 21.5785L29.915 21.6717L30.2261 21.7649L30.5681 21.8581L30.9414 21.9203L31.3766 21.9825L31.8431 22.0135H32.3405L32.9002 21.9825L33.4289 21.9203L33.9575 21.8271L34.455 21.6717L34.9215 21.4851L35.3879 21.2675L35.8231 20.9876L36.2274 20.6766L36.6007 20.3345L36.9427 19.9613L37.2538 19.557L37.5648 19.1218L37.8446 18.6553L38.0623 18.1579L38.2799 17.6292L38.4665 17.1005L38.5909 16.5409L38.6841 15.95L38.7463 15.3281L38.7773 14.7062L38.7463 14.0844L38.6841 13.4625L38.5909 12.8716L38.4355 12.312L38.2489 11.7833L38.0313 11.3168L37.7824 10.8504L37.5026 10.4461L37.1915 10.0729L36.8495 9.73082L36.4762 9.41977L36.103 9.13994L35.6987 8.92232L35.2635 8.73569L34.8283 8.58028L34.3618 8.48708L33.8953 8.42487L33.3979 8.39389L32.9004 8.42487L32.434 8.48708L31.9675 8.58028L31.5323 8.73569L31.097 8.89109L30.6928 9.07772L30.2885 9.26436L29.9153 9.48197L29.511 9.66861L29.2 9.88622L28.7957 10.1661L28.6713 10.1038L28.7023 8.39364L28.5469 8.42463L28.3915 8.45562L28.2048 8.4866L27.9872 8.54881L27.7696 8.61102L27.552 8.67323L27.3031 8.73544L27.0855 8.79765L26.8679 8.85987L26.6503 8.92208L26.4327 8.95306L26.1838 9.01527H25.935L25.6861 9.04626L25.4373 9.10847L25.1575 9.17068L24.9086 9.20166L24.691 9.23265L24.4734 9.26363L24.318 9.32584H24.1626H24.0694V9.6369L24.6912 9.69911L25.0023 9.73009L25.2511 9.7923H25.2821L25.4997 9.85452H25.5307L25.7174 9.94771L25.7483 9.97869L25.9038 10.1031L25.9347 10.1341L26.0592 10.2895V10.3205L26.1524 10.5071V10.5381L26.2146 10.7557V10.7867L26.2768 11.0665L26.3078 11.3776V11.7196V11.8441V11.9995V12.1861V12.6526V12.9324V14.0519V14.4872V24.8111V25.2775V26.5213V26.8945V27.2366V27.5476V27.8587V28.1385V28.4496L26.2768 28.6984L26.2458 28.916L26.1836 29.1027L26.1526 29.1336L26.0904 29.289L26.0594 29.32L25.935 29.4445L25.904 29.4754L25.7796 29.5064H25.7486L25.562 29.5686H25.531L25.3134 29.6308L25.0335 29.6618L24.1318 29.755V30.0661H24.3185H24.4739H24.6915H24.9091H25.1579H25.4068H25.6866H25.9665H26.2463H26.5261H26.8059H27.0548H27.9877H28.2365H28.5164H28.7962H29.076H29.3559H29.6357H29.9155H30.1953H30.4442H30.6618H30.8794H31.0661H31.2527V29.8172M32.2778 21.5161L31.8114 21.4851H31.7804L31.3452 21.4229L30.9409 21.3297H30.9099L30.5367 21.2052L30.1946 21.0808H30.1636L29.8526 20.9254L29.6037 20.7388L29.4171 20.5212L29.1995 20.3345L29.0441 20.1479L28.8887 19.9303V19.8993L28.7955 19.7127L28.7023 19.526V10.6637L28.7645 10.6015H28.7955L28.8265 10.5705L28.8887 10.5083L29.0131 10.4151L29.1685 10.3219L29.3551 10.2288L29.5728 10.1356L29.8216 10.0424L30.1327 9.94916L30.4747 9.85597L30.848 9.79376L31.2522 9.76277L31.6874 9.73179L32.1227 9.76277H32.1537L32.5579 9.82498H32.5889L32.9622 9.9494H32.9931L33.3664 10.1048L33.7085 10.2914L34.0505 10.5403L34.3616 10.8201L34.6414 11.1312L34.9212 11.4732L35.1701 11.8465L35.3877 12.2507L35.5743 12.686L35.7297 13.1524L35.8851 13.6499L35.9783 14.1473L36.0715 14.676L36.1337 15.2047L36.1647 15.7643V16.4174L36.1337 17.0393L36.0715 17.6302L35.9783 18.1588L35.8539 18.6563L35.6985 19.1227L35.5118 19.527V19.558L35.2942 19.9312L35.0454 20.2423L34.7656 20.5221H34.7346L34.4235 20.771L34.0815 20.9576H34.0505L33.6772 21.113H33.6462L33.242 21.2374L32.8068 21.2997H32.7758L32.2778 21.5161Z" fill="black"/>
<path d="M45.0895 21.8581L44.7162 21.7959L44.3741 21.6715L44.0321 21.547L43.7523 21.3604L43.5034 21.1428L43.2858 20.894L43.1304 20.7073L43.0372 20.5519L42.944 20.3653L42.8508 20.1786L42.7886 19.992L42.7576 19.7744L42.6954 19.5256L42.6644 19.2457V18.9347L42.6334 18.5926V18.1884V17.2245V16.9446V16.6336V16.2915L42.6644 15.9183V15.5762V15.172V14.7987V14.3945V13.9902L42.6954 13.617V13.2437V12.8394V12.4662L42.7264 12.1241V11.7821V11.471V11.1912V10.9424L42.7574 10.6935V10.5069V10.3515V10.2271V9.97821H41.0782L41.2336 9.85379L41.389 9.69839L41.5756 9.54298L41.7623 9.35635L41.9799 9.16971L42.1665 8.9521L42.3841 8.76546L42.6017 8.54785L42.7884 8.36121L42.975 8.1436L43.1616 7.98819L43.3483 7.80155L43.5037 7.61492H43.5347L43.6901 7.42829L43.8767 7.21067L44.0633 7.02404L44.25 6.80642L44.4366 6.61979L44.592 6.43315L44.7474 6.24652L44.9028 6.09112L45.0582 5.93571L45.1204 5.8735V5.96669L45.0582 8.95185H49.474V9.94699H45.0582V10.1958V10.3203V10.4757L45.0272 10.6623V10.8799V11.1288V11.4086V11.7196L44.9963 12.0307V12.3727V12.7148V13.0568V13.4301L44.9653 13.7721V14.1142V14.4874V14.7985V15.1095L44.9343 15.4206V15.7004V15.9802V16.1669V17.2552V17.6285L44.9653 17.9705V18.3126L44.9963 18.6236L45.0272 18.9034L45.0895 19.1523V19.1833L45.1517 19.4009L45.2761 19.6807H45.3071L45.4625 19.9296L45.4935 19.9605L45.6801 20.1472L45.8977 20.3026L45.9287 20.3336L46.1775 20.4268V20.4577L46.4574 20.52L46.7684 20.5822H47.1105H47.3903H47.4213L47.7011 20.52L47.9809 20.4268L48.2608 20.3336V20.3026L48.5096 20.2094L48.7272 20.085V20.054L48.9139 19.9296H48.9448L49.1002 19.8051L49.2557 19.7119L49.3179 19.6497L49.4733 19.9608L49.3179 20.0852L49.069 20.3028L48.7892 20.5204L48.4781 20.7381L48.1361 20.9869L47.7941 21.1735L47.4208 21.3602L47.0788 21.5468L46.6745 21.6712L46.2703 21.7956L45.897 21.8579L45.4927 21.8888L45.0895 21.8581Z" fill="black"/>
<path d="M51.7441 30.4408L51.5265 30.3786L51.3089 30.2854L51.1222 30.161L50.9668 30.0056L50.8424 29.8189L50.7492 29.6323L50.687 29.4457L50.656 29.228L50.687 29.0414L50.718 28.886L50.8112 28.7306L50.9044 28.6062L51.0288 28.513L51.2154 28.4198L51.402 28.3576L51.6197 28.2954L51.8685 28.2644L52.1483 28.2334H52.4594L52.7704 28.2024H53.0815L53.3303 28.1714L53.3613 28.1404L53.5789 28.1095H53.6099L53.8276 28.0163L54.0142 27.9231L54.0452 27.8921L54.2318 27.7677L54.4184 27.6122L54.5738 27.4256V27.3946L54.7292 27.177H54.7602L54.9156 26.9282L55.071 26.6171L55.2265 26.2751H55.2574L55.4128 25.9018L55.6305 25.4666L55.7859 25.0933L55.9413 24.7513L56.0657 24.378L56.2211 24.036L56.3455 23.7249L56.4699 23.4138L56.5944 23.134L56.7188 22.8542L56.812 22.6053L56.8742 22.3877L56.9674 22.2323L56.9984 22.0769L57.0606 21.9525L57.0916 21.8903L57.1226 21.8281L57.0916 21.7349L57.0606 21.6727L56.9984 21.5795L56.9362 21.4241L56.874 21.2687L56.8117 21.051L56.6873 20.8334L56.5941 20.5536L56.4697 20.2738L56.3453 19.9939L56.2209 19.6829V19.6519L56.0964 19.3408L55.941 18.9988L55.8166 18.6568L55.6612 18.3147L55.5058 17.9727L55.3814 17.6306L55.226 17.2886L55.0706 16.9466L54.9461 16.6045L54.8217 16.2935L54.6973 16.0136L54.5729 15.7338L54.324 15.1429L54.1064 14.6455V14.6145L53.8888 14.1171L53.7022 13.6506L53.4845 13.1841L53.2669 12.7177L53.0803 12.2512L52.8314 11.7538L52.6138 11.2251L52.365 10.6654L52.2718 10.4788L52.1786 10.2612L52.0854 10.0745V10.0436L51.9922 9.85693H51.9612L51.8368 9.6703V9.63931L51.7124 9.48391L51.6814 9.45292L51.526 9.3285V9.29752L51.3394 9.17309L51.3084 9.14211L51.0908 9.0799L51.0598 9.04891L50.8421 9.01793L50.3757 8.95572V8.64466H50.4067H50.5621H50.7175H50.9351L51.1527 8.67565H51.4016H51.6504H51.9302H52.2101H52.4589L52.7387 8.70663H53.7649L54.0137 8.67565H54.2935H54.5734H54.8844H55.1333H55.4131L55.6619 8.64466H55.8795H56.0662H56.2528H56.4082H56.4392V8.95572L55.9418 8.9867H55.6307H55.5997L55.3509 9.04891H55.3199L55.1333 9.11112H55.1023L54.9156 9.17334L54.8847 9.20432L54.7602 9.29752L54.7292 9.35973L54.667 9.48415L54.6361 9.51513V9.67054V9.73275V9.85717L54.667 10.0438L54.7292 10.2304V10.2614L54.7915 10.479H54.8224L54.9156 10.7279L55.0088 11.0077V11.0387L55.1333 11.3185L55.2577 11.6606L55.3821 11.9716L55.5375 12.3137L55.6929 12.6869L55.8483 13.029L55.9727 13.371L56.1282 13.713L56.2526 14.0551L56.377 14.3349L56.5014 14.6147L56.6258 14.8946L56.7503 15.2056L56.8747 15.5167L56.9991 15.8277L57.1235 16.1388L57.2789 16.4186L57.4034 16.7297L57.4965 17.0095L57.621 17.2583L57.7142 17.5072L57.8386 17.756L57.9008 17.9427L57.994 18.0981L58.0562 18.2535L58.0872 18.3467L58.1182 18.4089V18.4399L58.2114 18.5953H58.3358L58.398 18.4399H58.429V18.3777L58.46 18.3155L58.491 18.2223L58.5532 18.0978L58.6464 17.9112L58.7086 17.7246L58.8018 17.4757L58.9262 17.1959L59.0506 16.8848L59.206 16.5428L59.3614 16.1695L59.5481 15.7031L59.7347 15.2366L59.9523 14.7079L60.2012 14.1483L60.4188 13.5574L60.6676 12.9977L60.8542 12.4691L61.0409 11.9716L61.1653 11.5364L61.2897 11.1631V11.1321L61.3829 10.7901L61.4451 10.479H61.4761L61.5071 10.2302V10.1992V9.9816V9.85717V9.73275H61.4761V9.63955L61.4451 9.60857L61.4142 9.51537L61.3832 9.48439L61.321 9.39119L61.29 9.36021L61.1968 9.298H61.1658L61.0414 9.2048L60.8547 9.14259L60.6371 9.08038L60.3883 9.04939L59.8908 8.9562V8.64514H59.953H60.1084H60.2951H60.4817L60.7306 8.67613H60.9482H61.197H61.4459H61.6947L61.9435 8.70712H62.3788L62.5964 8.67613H62.8452H63.0941H63.3429H63.5918L63.8094 8.64514H64.027H64.2137H64.3381H64.4003V8.9562L64.027 9.04939H63.9648H63.9338L63.8406 9.08038L63.8096 9.11137L63.7164 9.14235L63.561 9.20456L63.4056 9.26677V9.29776L63.2502 9.39095V9.42194L63.0636 9.54636L62.9082 9.73299L62.7528 9.95061L62.5974 10.1995L62.5042 10.3549L62.442 10.5103L62.3488 10.6969L62.2556 10.8835L62.1624 11.1012L62.038 11.35L61.9135 11.6298L61.7891 11.9409L61.6337 12.2829L61.4783 12.6872L61.2917 13.0914L61.105 13.5267L60.8874 14.0241L60.6698 14.5528L60.421 15.1437L60.2033 15.6723L59.9545 16.2632L59.7056 16.8541L59.4568 17.476L59.208 18.0978L58.9591 18.6887L58.7103 19.2484L58.4927 19.808L58.275 20.3367V20.3677L58.2441 20.4299L58.2131 20.5231L58.1509 20.6475L58.0886 20.8341L57.9954 21.0518L57.9023 21.3006L57.8091 21.5495L57.6846 21.8293L57.5914 22.1403L57.436 22.4514L57.3116 22.7625L57.1872 23.1045L57.0318 23.4465L56.9074 23.7886L56.7829 24.1306L56.6275 24.4726L56.5031 24.8147L56.3787 25.1567L56.2543 25.4678L56.1298 25.7476L56.0054 26.0274L55.9122 26.2763L55.819 26.5251L55.7258 26.7118L55.6326 26.8672L55.415 27.3958L55.1662 27.8623L54.9173 28.2975L54.6375 28.7018L54.3577 29.0438L54.0778 29.3859L53.798 29.6657L53.487 29.9145L53.2071 30.1012L52.8961 30.2566L52.585 30.381L52.3052 30.4432L51.9941 30.4742L51.7441 30.4408Z" fill="black"/>
<path fill-rule="evenodd" clip-rule="evenodd" d="M78.9531 30.1297H78.7977H78.611H78.3934H78.1446H77.8957H77.6159H77.3361H77.0562H76.7764H76.4654H76.2165H75.2836H75.0348H74.7549H74.4751H74.1953H73.9154H73.6356H73.3558H73.076H72.8271H72.6095H72.3919H72.2052H72.0186V29.8187L73.2004 29.7255L73.4802 29.6945L73.6978 29.6323H73.7288L73.9154 29.5701H73.9464L74.1018 29.4769L74.1328 29.4459L74.2572 29.3215L74.2882 29.2905L74.3814 29.1351V29.1041L74.4436 28.9175V28.8865L74.5058 28.6689V28.6379L74.5368 28.389L74.5678 28.1092V20.2108L74.4746 20.1486L74.3192 20.2418L74.2882 20.2728L74.2572 20.3038L74.164 20.366L74.0396 20.4592L73.8842 20.5524L73.6976 20.6768L73.48 20.8322L73.2623 20.9566L73.0447 21.1433L72.7649 21.2987L72.4851 21.4231L72.174 21.5475L71.863 21.6719L71.5209 21.7964L71.1789 21.8896L70.8056 21.9518L70.4323 22.014H70.0591L69.5616 21.983L69.0952 21.9208L68.6599 21.8276L68.2247 21.6722L67.8205 21.4856L67.4162 21.2679L67.0429 20.9881L66.7009 20.6771L66.3898 20.335L66.11 19.9617L65.8302 19.5575L65.5813 19.1223L65.3637 18.6248L65.1771 18.0961L65.0527 17.5365L64.9595 16.9456L64.8973 16.3237L64.8663 15.7019L64.8973 15.0488L64.9595 14.4269L65.0527 13.836L65.2081 13.2451L65.3947 12.6855L65.6123 12.1568L65.8612 11.6594L66.141 11.1929L66.452 10.7577L66.7941 10.3534L67.1361 9.98014L67.5404 9.63811L67.9446 9.32705L68.3799 9.07821L68.8463 8.86059L69.3128 8.70518L69.8102 8.54977L70.3389 8.45658L70.8676 8.39437L71.4272 8.36338H71.8625L72.2667 8.39437L72.64 8.42535L72.982 8.48756L73.2931 8.54977L73.5729 8.61199L73.8218 8.6742L74.0394 8.73641L74.226 8.79862L74.3814 8.86083L74.4746 8.89182L74.5368 8.9228L74.63 8.95378L74.7232 8.89157L74.7854 8.86059L74.8786 8.79838L75.003 8.73617L75.1584 8.67395L75.3139 8.58076L75.4693 8.48756L75.6247 8.39437L75.7801 8.30117L75.9355 8.20798L76.0909 8.11478L76.2775 8.02159L76.4329 7.95938L76.5883 7.89716L76.7437 7.83495L76.8369 7.80397V8.14601V8.36363V9.66957V10.0738V10.9445V11.411V12.9036V13.4323V15.6089V16.1686V23.9115V24.5956V25.8394V26.399V26.8965V27.3629V27.7672V28.1404V28.4515L76.8679 28.7003V28.7313L76.9301 28.9489V28.918L76.9923 29.1046L77.0233 29.1356L77.1165 29.291L77.1475 29.322L77.2719 29.4464L77.3029 29.4774L77.4583 29.5706H77.4893L77.6759 29.6328H77.7069L77.9245 29.695L78.2044 29.726L79.1061 29.8192V30.1302H78.9531M71.4902 20.7388L71.0859 20.7078H71.0549L70.6507 20.6456L70.2774 20.5524H70.2464L69.8732 20.397L69.5311 20.2103H69.5001L69.1891 19.9927L68.878 19.7439L68.5982 19.4328L68.3494 19.0908L68.1005 18.7175L67.8829 18.2823L67.6963 17.8158L67.5409 17.3184L67.4164 16.7897L67.3232 16.1988L67.261 15.577L67.2301 14.9239V14.302L67.2923 13.7111L67.3545 13.1515L67.4477 12.6228L67.5721 12.1253L67.7275 11.6589L67.9141 11.2236L68.1318 10.8504L68.3806 10.5083L68.6604 10.1973L68.9715 9.91745L69.2825 9.69983H69.3135L69.6556 9.5132L70.0288 9.35779H70.0598L70.4641 9.2646L70.8993 9.20239H70.9303L71.3655 9.1714L71.8007 9.20239L72.205 9.2646L72.5783 9.32681L72.9203 9.42L73.2314 9.54443L73.4802 9.66885L73.6978 9.79327L73.8845 9.91769L74.0399 10.0421L74.1643 10.1665L74.2575 10.2597L74.3197 10.3219L74.3507 10.3842V10.4151L74.3817 10.4773V20.024L74.3194 20.0549L74.2885 20.0859L74.1953 20.1481L74.0708 20.2413L73.9154 20.3345L73.7288 20.4277L73.5112 20.5209L73.2623 20.6141L72.9513 20.7073L72.6092 20.8005L72.236 20.8627L71.8317 20.8937L71.4902 20.7388Z" fill="black"/>
<path d="M85.9187 21.9825L86.3852 21.9203L86.8517 21.8271L87.2869 21.7027L87.7221 21.5473L88.1264 21.3919L88.5306 21.2052L88.9039 21.0186L89.2459 20.801L89.557 20.6144L89.8368 20.4277L90.0857 20.2723L90.3033 20.1169L90.5831 19.8681L90.7075 19.9303V21.9825H90.7698L90.8942 21.9515H90.9252H91.0806L91.2982 21.9205L91.5158 21.8896L91.7646 21.8586H91.7956L92.0445 21.8276L92.2621 21.7966L92.5109 21.7656L92.7286 21.7346H92.7595H92.9772L93.1948 21.7037L93.4124 21.6727L93.6612 21.6417H93.9101L94.1589 21.6107L94.3765 21.5797L94.6254 21.5487L94.812 21.5177L94.9987 21.4868L95.1853 21.4558H95.3097L95.3719 21.4248V21.176H95.3409L95.1855 21.2069H95.0611H94.9057H94.7503H94.4392L94.1904 21.176L94.1594 21.145L93.9418 21.0828H93.9108L93.7242 21.0205L93.6932 20.9896L93.5378 20.8651H93.5068L93.4136 20.7097L93.3826 20.6787L93.2894 20.5233L93.2584 20.4924L93.1962 20.3057V20.2747L93.1652 20.0571H93.1343L93.1033 19.7773V19.4975V19.4665L93.0723 19.1554V18.7512V18.3779V18.0359L93.0413 17.756V17.4762V17.1964V16.9475L93.0103 16.6987V16.4189V16.17V15.8902V15.5791V13.7445V13.4025V12.3141V11.9409V11.1946L93.0413 10.8526V9.82643V9.51538V8.73786V8.58246V8.39582L92.8859 8.42681L92.7305 8.48902L92.5439 8.52L92.3572 8.58221H92.3262L92.1396 8.6132L91.8908 8.67541L91.6419 8.73762L91.4243 8.7686L91.2067 8.83081L90.9891 8.89302L90.7714 8.92401L90.5226 8.95499V8.98598L90.2738 9.01696L90.0249 9.07917L89.7761 9.11016L89.4962 9.17237L89.2786 9.20335L89.0298 9.23434L88.8431 9.26532L88.6565 9.32753H88.5011L88.4079 9.35852V9.63835L89.0298 9.66933L89.3718 9.70032L89.4028 9.7313L89.6516 9.79351H89.6826L89.9002 9.88671L89.9312 9.91769L90.1179 10.0421H90.1489L90.3043 10.1975L90.3352 10.2285L90.4597 10.4461V10.4771L90.5529 10.6947V10.7257L90.6151 11.0055L90.6461 11.3476L90.677 11.7208V12.2495V12.2805L90.708 12.7779V13.2444V13.7109V14.1773V19.5258L90.366 19.7434L90.0549 19.8988L89.7751 20.0542H89.7441L89.4331 20.2096L89.091 20.334V20.365L88.7178 20.4582L88.3135 20.5514L87.8783 20.6136H87.4118H87.0385L86.6965 20.5514L86.3854 20.4892L86.0744 20.3648L85.7946 20.2094H85.7636L85.546 20.054L85.515 20.023L85.2974 19.8364V19.8054L85.1107 19.5878L85.0797 19.5568L84.9243 19.2769L84.7999 18.9659L84.6755 18.6238V18.5929L84.6133 18.2196L84.5823 17.8153V17.4733V17.1935L84.5513 16.8824V16.5714V16.2603V15.9493V13.3683V13.0263V12.3422V12.0002L84.5823 11.6269V11.2537V10.9116V10.5696V10.1963V9.88525V9.5742V9.26315L84.6133 9.0143V8.79668V8.39243L84.4579 8.42342L84.3025 8.48563L84.1158 8.51661L83.8982 8.57883L83.6806 8.60981L83.463 8.67202L83.2141 8.73423L82.9965 8.76521L82.7789 8.82743L82.5613 8.88964L82.3437 8.92062L82.0948 8.95161V8.98259L81.846 9.01357L81.5971 9.07579L81.3483 9.10677H81.3173L81.0685 9.16898L80.8508 9.19997L80.602 9.23095L80.3844 9.26193L80.229 9.32415H80.0736L79.9804 9.35513V9.63496L80.6022 9.66594L80.9443 9.69693V9.72791L81.2241 9.79012L81.473 9.88332L81.5039 9.9143L81.6906 10.0387H81.7216L81.877 10.1941L81.9079 10.2251L82.0011 10.4427L82.0321 10.4737L82.0943 10.6913L82.1253 10.7223L82.1875 11.0021L82.2185 11.3442L82.2495 11.7175V12.0907V12.4018V13.6455V13.8631V14.143V14.4228V15.6046V16.0398V16.4131V16.7863L82.2185 17.0662V17.315V17.5016V17.6883V18.1235L82.2495 18.5277V18.8698L82.3117 19.1808L82.3427 19.4607L82.4049 19.7405L82.4981 19.9893L82.5913 20.207L82.7157 20.4558L82.8711 20.6734L83.0578 20.9223L83.2444 21.1711L83.4932 21.3577L83.7731 21.5754L84.0529 21.6998L84.3639 21.8242L84.706 21.9174L85.0793 21.9796L85.4525 22.0106L85.9187 21.9825Z" fill="black"/>
<path d="M103.488 21.9825L104.017 21.9203L104.545 21.8271L105.043 21.6717L105.54 21.4851L106.007 21.2675L106.442 21.0498L106.877 20.801L107.25 20.5212L107.655 20.2413L108.028 19.9615L108.37 19.6817L108.712 19.4018L108.93 19.2152L108.743 18.9354L108.588 19.0598L108.37 19.2152L108.121 19.3706L107.841 19.5573L107.53 19.7439L107.219 19.8993L106.877 20.0547L106.504 20.2101L106.1 20.3345L105.664 20.4277L105.229 20.4899L104.763 20.5209L104.296 20.4899L103.83 20.4277L103.363 20.3345H103.332L102.897 20.1791L102.493 19.9925H102.462L102.058 19.7749L101.684 19.526L101.342 19.215L101.031 18.8729L100.72 18.4997L100.471 18.0954L100.222 17.6602L100.005 17.1937L99.8182 16.6963L99.6938 16.1366L99.6006 15.5457L99.5384 14.9239L99.5074 14.2708V13.8665H99.8807H100.036H100.223H100.44H100.938H101.218H101.497H101.777H103.736H104.141H104.545H104.949H105.353H105.758H106.162H106.535H106.908H107.25H107.561H107.841H108.121H108.339H108.556H108.712H108.774L108.743 13.6489L108.681 13.2756L108.619 12.9024L108.494 12.4359L108.401 12.0626L108.276 11.7206L108.121 11.3786L107.966 11.0365L107.779 10.7255L107.592 10.4144L107.375 10.1346L107.126 9.85476L106.846 9.60591L106.566 9.35707L106.255 9.13945L105.913 8.95282L105.54 8.76618L105.136 8.64176L104.7 8.51734L104.234 8.45513L103.737 8.39292L103.208 8.36193H102.835L102.43 8.42414L102.057 8.48635L101.684 8.61077L101.311 8.7352L100.937 8.8906L100.595 9.07724L100.253 9.29486L99.9112 9.5437L99.5691 9.82353L99.2581 10.1346L98.9782 10.4766L98.6984 10.8499L98.4496 11.2541L98.232 11.6894L98.0143 12.1558L97.8277 12.6533L97.6723 13.182L97.5479 13.7416L97.4547 14.3325L97.3925 14.9544L97.3615 15.6075L97.3925 16.1983L97.4547 16.758L97.5479 17.3177L97.7033 17.8151L97.8587 18.2816L98.0763 18.748L98.3252 19.1833L98.605 19.5875L98.8848 19.9608L99.1959 20.3028L99.5379 20.6139L99.8799 20.8937L100.253 21.1425L100.626 21.3602L101.031 21.5468L101.435 21.7022L101.839 21.8266L102.243 21.9198L102.648 21.982L103.052 22.013L103.488 21.9825ZM99.4767 13.1512V12.8402L99.5076 12.6535L99.5386 12.4669L99.5696 12.2493L99.6318 12.0317L99.694 11.814L99.7872 11.503L99.8804 11.2541L99.9736 11.0053L100.098 10.7564L100.253 10.5076L100.409 10.2588L100.595 10.0411L100.782 9.82353L101 9.63689L101.217 9.45026H101.248L101.497 9.29486L101.777 9.17043H101.808L102.119 9.07724H102.15L102.461 9.01503H102.492L102.834 8.98404L103.207 9.01503H103.238L103.58 9.07724H103.611L103.922 9.17043L104.234 9.29486H104.264L104.544 9.45026L104.793 9.63689L105.011 9.85451L105.228 10.0721L105.415 10.321L105.57 10.5698L105.695 10.8496L105.819 11.1295L105.912 11.4405L105.975 11.7516L106.037 12.0626L106.068 12.3737L106.099 12.6848V13.12H99.4754" fill="black"/>
<path d="M43.1614 43.0968C43.1614 43.7186 43.037 44.2785 42.7881 44.776C42.5393 45.2734 42.1972 45.6777 41.762 45.9577C41.3268 46.2376 40.8291 46.393 40.2694 46.393C39.8342 46.393 39.4919 46.362 39.2433 46.2686C38.9947 46.1751 38.8391 46.1131 38.7459 46.0509C38.7459 47.7301 38.7459 48.7253 38.7459 49.0361C38.7459 49.2537 38.8081 49.4094 38.8703 49.5026C38.9325 49.5957 39.0879 49.658 39.3055 49.658L39.8964 49.7202V50C39.7098 50 39.4299 50 39.0569 50C38.6839 50 38.4038 50 38.1862 50C37.9686 50 37.6888 50 37.3467 50C37.0047 50 36.7558 50 36.6004 50V49.7512L37.0669 49.6889C37.2845 49.658 37.4089 49.5958 37.4711 49.5335C37.5333 49.4403 37.5643 49.2847 37.5643 49.0671C37.5643 48.6006 37.5643 47.3569 37.5643 45.3666C37.5643 43.1899 37.5643 42.0082 37.5643 41.8528C37.5643 41.5729 37.5021 41.3553 37.4089 41.2309C37.3157 41.1065 37.1601 41.0443 36.8802 41.0133L36.5382 40.9823V40.7335C36.6626 40.7025 36.818 40.6713 37.0357 40.6403C37.2223 40.6093 37.4709 40.5471 37.751 40.4849C37.8754 40.4539 38.0308 40.4226 38.2484 40.3604C38.466 40.2982 38.6217 40.2672 38.7459 40.236V41.0135C39.4612 40.4849 40.114 40.236 40.7361 40.236C41.1714 40.236 41.5756 40.3604 41.9489 40.5781C42.3221 40.8269 42.633 41.1377 42.8506 41.5732C43.037 42.0397 43.1614 42.5371 43.1614 43.0968ZM41.9799 43.6254C41.9799 43.128 41.8867 42.6615 41.731 42.2573C41.5756 41.853 41.3268 41.542 41.0469 41.2934C40.7359 41.0445 40.4251 40.9513 40.0518 40.9513C39.6785 40.9513 39.3987 41.0135 39.1811 41.1067C38.9635 41.1999 38.8078 41.2934 38.7459 41.3556V45.2114C38.8081 45.3981 38.9947 45.5847 39.2745 45.7711C39.5544 45.9577 39.8964 46.0509 40.2697 46.0509C41.42 46.0509 41.9799 45.2424 41.9799 43.6254ZM51.5262 45.5223C51.3708 45.6777 51.153 45.8643 50.8421 46.0819C50.5311 46.2995 50.2513 46.424 49.9714 46.424C49.7226 46.424 49.505 46.3308 49.3806 46.1441C49.2251 45.9575 49.1317 45.8021 49.1007 45.6777C48.9453 45.8021 48.7275 45.9575 48.3854 46.1751C48.0744 46.3617 47.7323 46.4549 47.3903 46.4549C47.017 46.4549 46.675 46.2995 46.3642 46.0197C46.0531 45.7399 45.8977 45.3978 45.8977 44.9936C45.8977 44.5893 46.0843 44.2161 46.4264 43.9362C46.7684 43.6252 47.1727 43.4076 47.6391 43.2831C47.919 43.19 48.1988 43.1277 48.4786 43.0965C48.7584 43.0655 48.9451 43.0343 49.0695 43.0343C49.0695 42.9099 49.0695 42.7232 49.1005 42.4746C49.1005 42.2258 49.1005 42.0082 49.1005 41.7906C49.1005 41.4173 49.0073 41.1375 48.8516 40.9511C48.665 40.7644 48.4474 40.64 48.1985 40.64C47.9497 40.64 47.7943 40.7022 47.6699 40.7954C47.5454 40.8886 47.4523 41.0443 47.3588 41.1997C47.2344 41.4485 47.11 41.6039 47.0168 41.6971C46.8924 41.7903 46.7679 41.8525 46.5815 41.8525C46.4261 41.8525 46.3327 41.7903 46.2705 41.6971C46.2083 41.6039 46.1773 41.4795 46.1773 41.3861C46.1773 41.2617 46.2083 41.1685 46.3017 41.075C46.3949 40.9818 46.5193 40.8574 46.7369 40.764C47.2034 40.4841 47.7943 40.3287 48.4471 40.3287C49.1002 40.3287 49.5355 40.4219 49.8153 40.6398C50.0951 40.8574 50.2505 41.1685 50.2505 41.5727C50.2505 41.7903 50.2505 42.1636 50.2196 42.7855C50.1886 43.3763 50.1886 44.0914 50.1886 44.9311C50.1886 45.4286 50.3752 45.6774 50.7482 45.6774C50.8726 45.6774 50.9971 45.6464 51.1525 45.5842C51.3079 45.522 51.4013 45.4598 51.4635 45.3976L51.5262 45.5223ZM49.0075 43.3146C48.9143 43.3146 48.7587 43.3456 48.5411 43.3768C48.3234 43.4078 48.1058 43.439 47.888 43.5322C47.6391 43.5944 47.3905 43.7189 47.2039 43.9055C47.0173 44.0609 46.9241 44.2788 46.9241 44.4964C46.9241 44.7762 46.9863 44.9938 47.1107 45.1805C47.2351 45.3671 47.3905 45.4915 47.5772 45.5847C47.7638 45.6779 47.9814 45.7091 48.168 45.7091C48.4791 45.7091 48.7589 45.5847 49.0075 45.3671V43.3146ZM58.0877 40.8579C58.0877 41.0445 57.9945 41.2621 57.8078 41.4798C57.6212 41.7286 57.4346 41.8218 57.2482 41.8218C57.186 41.8218 57.1238 41.7908 57.0616 41.7596C56.9993 41.7286 56.9684 41.6664 56.9371 41.5729C56.9062 41.4798 56.8439 41.4175 56.8127 41.3863C56.7195 41.2931 56.6261 41.2619 56.5017 41.2619C56.3463 41.2619 56.1906 41.3863 56.0352 41.6039C55.8798 41.8528 55.7241 42.1948 55.5687 42.7235C55.5687 43.0345 55.5687 43.3144 55.5687 43.5942C55.5687 43.874 55.5687 44.1851 55.5687 44.5581C55.5687 44.9314 55.5687 45.18 55.5687 45.2734C55.5687 45.4601 55.5997 45.5845 55.6619 45.6467C55.7241 45.7399 55.8173 45.7711 55.973 45.8333C56.1284 45.8643 56.315 45.8955 56.5326 45.9265L57.0613 45.9887V46.2686C56.8125 46.2686 56.4394 46.2686 56.004 46.2376C55.5687 46.2376 55.2265 46.2376 54.9778 46.2376C54.7602 46.2376 54.4804 46.2376 54.1384 46.2376C53.7963 46.2376 53.5475 46.2376 53.3921 46.2686V46.0197L53.8585 45.9575C54.0762 45.9265 54.2006 45.8643 54.2628 45.8021C54.325 45.7089 54.356 45.5532 54.356 45.3356C54.356 44.8692 54.356 44.2783 54.356 43.5632C54.356 42.8169 54.356 42.2573 54.356 41.7908C54.356 41.511 54.2938 41.2934 54.2006 41.1689C54.1074 41.0445 53.9207 40.9823 53.6719 40.9513L53.3299 40.9203V40.6715C53.4543 40.6405 53.6097 40.6093 53.8273 40.5783C54.0139 40.5473 54.2625 40.5161 54.5426 40.4229C54.667 40.3919 54.8224 40.3607 55.0401 40.2985C55.2577 40.2363 55.4133 40.2053 55.5375 40.174C55.5375 40.174 55.5375 40.7649 55.5375 41.9465C55.5997 41.7598 55.6929 41.5112 55.8486 41.2624C56.004 40.9826 56.1596 40.7649 56.346 40.5783C56.6258 40.2985 56.9369 40.174 57.3099 40.174C57.5275 40.174 57.6832 40.2363 57.8386 40.3607C58.0255 40.5781 58.0877 40.7025 58.0877 40.8579ZM63.8404 46.2998C63.6537 46.2998 63.3739 46.2998 63.0319 46.2688C62.6898 46.2688 62.3788 46.2688 62.1612 46.2688C61.9436 46.2688 61.6637 46.2688 61.3217 46.2688C60.9796 46.2688 60.7308 46.2688 60.5754 46.2998V46.0199L61.0419 45.9577C61.2595 45.9268 61.3839 45.8645 61.4461 45.8023C61.5083 45.7091 61.5393 45.5535 61.5393 45.3359C61.5393 44.8694 61.5393 44.2785 61.5393 43.5635C61.5393 42.8172 61.5393 42.2575 61.5393 41.791C61.5393 41.48 61.4771 41.2936 61.3839 41.1692C61.2907 41.0448 61.1041 40.9826 60.8552 40.9516L60.5132 40.9206V40.6717C60.6376 40.6408 60.793 40.6095 61.0106 40.5785C61.1973 40.5476 61.4459 40.5163 61.7259 40.4541C61.8504 40.4231 62.0058 40.3919 62.2234 40.3297C62.441 40.2675 62.5966 40.2365 62.7208 40.2053C62.7208 40.2053 62.7208 41.0448 62.7208 42.7552C62.7208 43.0663 62.7208 43.3461 62.7208 43.6259C62.7208 43.9057 62.7208 44.2168 62.7208 44.5898C62.7208 44.9631 62.7208 45.1807 62.7208 45.3051C62.7208 45.5227 62.783 45.6784 62.8452 45.7716C62.9075 45.8648 63.0629 45.927 63.2805 45.927L63.8092 45.9892V46.3003H63.8404V46.2998ZM62.9075 37.9349C62.9075 38.1526 62.8452 38.3392 62.6898 38.4636C62.5344 38.619 62.3478 38.6812 62.1612 38.6812C61.9436 38.6812 61.7879 38.619 61.6325 38.4636C61.4771 38.3082 61.4149 38.1216 61.4149 37.9349C61.4149 37.7173 61.4771 37.5617 61.6325 37.4063C61.7879 37.2509 61.9745 37.1886 62.1612 37.1886C62.3788 37.1886 62.5344 37.2509 62.6898 37.4063C62.8452 37.5307 62.9075 37.7173 62.9075 37.9349ZM70.4328 44.5274C70.4328 45.1183 70.184 45.5847 69.7175 45.8955C69.251 46.2066 68.6914 46.393 68.1005 46.393C67.8517 46.393 67.6031 46.362 67.292 46.2998C66.9809 46.2376 66.8255 46.2066 66.7323 46.2066C66.5457 46.2066 66.4213 46.2066 66.3591 46.2066C66.2969 46.2066 66.2659 46.2376 66.2347 46.2376C66.2347 46.2376 66.2037 45.9265 66.1724 45.3046C66.1724 45.1802 66.1415 45.0248 66.1415 44.8382C66.1415 44.6516 66.1105 44.5271 66.1105 44.4649C66.1105 44.4027 66.1105 44.3405 66.1105 44.3095H66.3903L66.4213 44.5893C66.4835 45.0558 66.6701 45.3978 66.95 45.6467C67.2298 45.8955 67.634 46.0199 68.1317 46.0199C68.505 46.0199 68.8158 45.9268 69.0334 45.7401C69.251 45.5535 69.3755 45.3049 69.3755 44.9938C69.3755 44.745 69.2823 44.5274 69.1266 44.372C68.9712 44.2166 68.567 44.0299 67.9449 43.7811C67.696 43.6879 67.4784 43.5635 67.2918 43.47C67.1051 43.3768 66.9185 43.2524 66.7631 43.128C66.6077 43.0036 66.4833 42.8169 66.3898 42.6305C66.2966 42.4439 66.2654 42.1953 66.2654 41.9465C66.2654 41.6044 66.3586 41.2934 66.5765 41.0448C66.7631 40.7959 67.0429 40.5783 67.354 40.4539C67.696 40.3295 68.0381 40.2672 68.4423 40.2672C68.7221 40.2672 69.002 40.2982 69.2818 40.3295C69.5616 40.3604 69.717 40.3917 69.7792 40.3917C69.8414 40.3917 69.9346 40.3917 69.9969 40.3607C70.0591 40.3607 70.1213 40.3297 70.1523 40.3297V40.6408C70.1523 40.8896 70.1523 41.2004 70.1832 41.4802C70.1832 41.7913 70.2142 42.0089 70.2142 42.1643H69.9344L69.9034 41.9777C69.8412 41.5112 69.6858 41.1692 69.4682 40.9516C69.2506 40.7339 68.9085 40.6405 68.5043 40.6405C68.1 40.6405 67.8202 40.7027 67.6026 40.8581C67.4159 41.0135 67.2915 41.2002 67.2915 41.48C67.2915 41.6666 67.3225 41.8533 67.4159 42.0087C67.5091 42.1641 67.6648 42.2885 67.8512 42.4129C68.0378 42.5373 68.3486 42.6618 68.7219 42.8482C69.2815 43.097 69.6236 43.2834 69.8102 43.3456C69.9656 43.4388 70.1213 43.5632 70.2767 43.7499C70.3394 43.9675 70.4328 44.2163 70.4328 44.5274Z" fill="black"/>
</svg>
